<svg width="80" height="80" viewBox="0 0 80 80" fill="none" xmlns="http://www.w3.org/2000/svg">
<path d="M29.9627 50.0373L36.656 36.6507L50.0373 29.9627L43.344 43.3493L29.9627 50.0373Z" fill="#00020f" fill-opacity="0.866667"/>
<path fill-rule="evenodd" clip-rule="evenodd" d="M0 40C0 29.3913 4.21427 19.2172 11.7157 11.7157C19.2172 4.21427 29.3913 0 40 0C50.6087 0 60.7828 4.21427 68.2843 11.7157C75.7857 19.2172 80 29.3913 80 40C80 50.6087 75.7857 60.7828 68.2843 68.2843C60.7828 75.7857 50.6087 80 40 80C29.3913 80 19.2172 75.7857 11.7157 68.2843C4.21427 60.7828 0 50.6087 0 40ZM58.384 25.1947C58.6337 24.6945 58.7198 24.1285 58.6303 23.5767C58.5408 23.0248 58.2801 22.5151 57.8851 22.1195C57.4901 21.7239 56.9807 21.4625 56.429 21.3721C55.8774 21.2818 55.3112 21.3671 54.8107 21.616L33.4773 32.2827C32.961 32.5395 32.5418 32.9568 32.2827 33.472L21.616 54.8053C21.3663 55.3055 21.2802 55.8715 21.3697 56.4233C21.4592 56.9752 21.7199 57.4849 22.1149 57.8805C22.5099 58.2761 23.0193 58.5375 23.571 58.6279C24.1226 58.7182 24.6888 58.6329 25.1893 58.384L46.5227 47.7173C47.039 47.4605 47.4582 47.0432 47.7173 46.528L58.384 25.1947Z" fill="#00020f" fill-opacity="0.75"/>
</svg>
