<svg width="60" height="60" viewBox="0 0 60 60" fill="none" xmlns="http://www.w3.org/2000/svg">
  <path fill-rule="evenodd" clip-rule="evenodd"
    d="M33.3333 33.3333V56.6667C33.3333 57.5507 32.9821 58.3986 32.357 59.0237C31.7319 59.6488 30.8841 60 30 60C29.1159 60 28.2681 59.6488 27.643 59.0237C27.0179 58.3986 26.6667 57.5507 26.6667 56.6667V33.3333H3.33333C2.44928 33.3333 1.60143 32.9821 0.976311 32.357C0.351189 31.7319 0 30.8841 0 30C0 29.1159 0.351189 28.2681 0.976311 27.643C1.60143 27.0179 2.44928 26.6667 3.33333 26.6667H26.6667V3.33333C26.6667 2.44928 27.0179 1.60143 27.643 0.976311C28.2681 0.351189 29.1159 0 30 0C30.8841 0 31.7319 0.351189 32.357 0.976311C32.9821 1.60143 33.3333 2.44928 33.3333 3.33333V26.6667H56.6667C57.5507 26.6667 58.3986 27.0179 59.0237 27.643C59.6488 28.2681 60 29.1159 60 30C60 30.8841 59.6488 31.7319 59.0237 32.357C58.3986 32.9821 57.5507 33.3333 56.6667 33.3333H33.3333Z"
    fill="#00020f" />
</svg>