<svg width="80" height="80" viewBox="0 0 80 80" fill="none" xmlns="http://www.w3.org/2000/svg">
<path fill-rule="evenodd" clip-rule="evenodd" d="M0 40C0 29.3913 4.21427 19.2172 11.7157 11.7157C19.2172 4.21427 29.3913 0 40 0C50.6087 0 60.7828 4.21427 68.2843 11.7157C75.7857 19.2172 80 29.3913 80 40C80 50.6087 75.7857 60.7828 68.2843 68.2843C60.7828 75.7857 50.6087 80 40 80C29.3913 80 19.2172 75.7857 11.7157 68.2843C4.21427 60.7828 0 50.6087 0 40ZM21.3333 32H26.6667V26.6667H21.3333V32ZM53.3333 32H58.6667V26.6667H53.3333V32ZM26.1333 46.4C27.7479 48.5527 29.8415 50.3 32.2483 51.5034C34.6551 52.7068 37.3091 53.3333 40 53.3333C42.6909 53.3333 45.3449 52.7068 47.7517 51.5034C50.1585 50.3 52.2521 48.5527 53.8667 46.4L58.1333 49.6C49.0667 61.6907 30.9333 61.6907 21.8667 49.6L26.1333 46.4Z" fill="#00020f" fill-opacity="0.75"/>
</svg>
